<?xml version="1.0" encoding="utf-8"?>
<!-- Generator: Adobe Illustrator 22.1.0, SVG Export Plug-In . SVG Version: 6.00 Build 0)  -->
<svg version="1.1" id="Ebene_1" xmlns="http://www.w3.org/2000/svg" xmlns:xlink="http://www.w3.org/1999/xlink" x="0px" y="0px"
	 viewBox="0 0 640 640" style="enable-background:new 0 0 640 640;" xml:space="preserve">
<path d="M530,210c-26.6,0-51,9.4-70,25.1c-19-15.7-43.4-25.1-70-25.1s-51,9.4-70,25.1c-19-15.7-43.4-25.1-70-25.1s-51,9.4-70,25.1
	c-19-15.7-43.4-25.1-70-25.1C49.2,210,0,259.2,0,320s49.2,110,110,110c26.6,0,51-9.4,70-25.1c19,15.7,43.4,25.1,70,25.1
	s51-9.4,70-25.1c19,15.7,43.4,25.1,70,25.1s51-9.4,70-25.1c19,15.7,43.4,25.1,70,25.1c60.8,0,110-49.2,110-110S590.8,210,530,210z
	 M460,369.8c-10.1-14.1-16-31.3-16-49.8c0-18.6,5.9-35.8,16-49.8c10.1,14.1,16,31.3,16,49.8C476,338.6,470.1,355.8,460,369.8z
	 M320,369.8c-10.1-14.1-16-31.3-16-49.8c0-18.6,5.9-35.8,16-49.8c10.1,14.1,16,31.3,16,49.8C336,338.6,330.1,355.8,320,369.8z
	 M180,369.8c-10.1-14.1-16-31.3-16-49.8c0-18.6,5.9-35.8,16-49.8c10.1,14.1,16,31.3,16,49.8C196,338.6,190.1,355.8,180,369.8z
	 M24,320c0-47.4,38.6-86,86-86c20,0,38.5,6.9,53.1,18.5C148.6,271.1,140,294.5,140,320s8.6,48.9,23.1,67.5
	C148.5,399.1,130,406,110,406C62.6,406,24,367.4,24,320z M196.9,387.5c14.5-18.6,23.1-42.1,23.1-67.5s-8.6-48.9-23.1-67.5
	C211.5,240.9,230,234,250,234s38.5,6.9,53.1,18.5C288.6,271.1,280,294.5,280,320s8.6,48.9,23.1,67.5C288.5,399.1,270,406,250,406
	S211.5,399.1,196.9,387.5z M336.9,387.5c14.5-18.6,23.1-42.1,23.1-67.5s-8.6-48.9-23.1-67.5C351.5,240.9,370,234,390,234
	s38.5,6.9,53.1,18.5C428.6,271.1,420,294.5,420,320s8.6,48.9,23.1,67.5C428.5,399.1,410,406,390,406S351.5,399.1,336.9,387.5z
	 M530,406c-20,0-38.5-6.9-53.1-18.5c14.5-18.6,23.1-42.1,23.1-67.5s-8.6-48.9-23.1-67.5C491.5,240.9,510,234,530,234
	c47.4,0,86,38.6,86,86C616,367.4,577.4,406,530,406z"/>
</svg>
