<svg xmlns="http://www.w3.org/2000/svg" viewBox="0 0 48 48" id="nm-icon-instagram">
    <title>instagram-large</title>
    <path fill="none" d="M0 0h48v48H0z" />
    <path d="M24 14.162c3.204 0 3.584.012 4.849.07a6.642 6.642 0 0 1 2.228.413 3.975 3.975 0 0 1 2.278 2.278 6.642 6.642 0 0 1 .413 2.228c.058 1.265.07 1.645.07 4.85s-.012 3.583-.07 4.848a6.642 6.642 0 0 1-.413 2.228 3.975 3.975 0 0 1-2.278 2.278 6.642 6.642 0 0 1-2.228.413c-1.265.058-1.645.07-4.849.07s-3.584-.012-4.849-.07a6.642 6.642 0 0 1-2.228-.413 3.975 3.975 0 0 1-2.278-2.278 6.642 6.642 0 0 1-.413-2.228c-.058-1.265-.07-1.645-.07-4.849s.012-3.584.07-4.849a6.642 6.642 0 0 1 .413-2.228 3.975 3.975 0 0 1 2.278-2.278 6.642 6.642 0 0 1 2.228-.413c1.265-.057 1.645-.07 4.849-.07M24 12c-3.259 0-3.668.014-4.948.072a8.807 8.807 0 0 0-2.912.558 6.136 6.136 0 0 0-3.51 3.51 8.807 8.807 0 0 0-.558 2.913C12.014 20.333 12 20.74 12 24s.014 3.668.072 4.948a8.807 8.807 0 0 0 .558 2.913 6.136 6.136 0 0 0 3.51 3.509 8.807 8.807 0 0 0 2.913.558c1.28.058 1.688.072 4.947.072s3.668-.014 4.948-.072a8.807 8.807 0 0 0 2.913-.558 6.136 6.136 0 0 0 3.509-3.51 8.807 8.807 0 0 0 .558-2.912c.058-1.28.072-1.689.072-4.948s-.014-3.668-.072-4.948a8.807 8.807 0 0 0-.558-2.912 6.136 6.136 0 0 0-3.51-3.51 8.807 8.807 0 0 0-2.912-.558C27.668 12.014 27.259 12 24 12z"
    />
    <path d="M24 17.838A6.162 6.162 0 1 0 30.162 24 6.162 6.162 0 0 0 24 17.838zM24 28a4 4 0 1 1 4-4 4 4 0 0 1-4 4z" />
    <circle cx="30.406" cy="17.594" r="1.44" />
</svg>
