<svg xmlns="http://www.w3.org/2000/svg" viewBox="0 0 48 48" id="nm-icon-youtube">
    <title>youtube-large</title>
    <path fill="none" d="M0 0h48v48H0z" />
    <path d="M38.7 18.002a6.49 6.49 0 0 0-1.193-2.978 4.291 4.291 0 0 0-3.005-1.27c-4.198-.304-10.496-.304-10.496-.304h-.013s-6.297 0-10.495.303a4.292 4.292 0 0 0-3.006 1.271A6.487 6.487 0 0 0 9.3 18.002a45.368 45.368 0 0 0-.3 4.855v2.276a45.366 45.366 0 0 0 .3 4.856 6.488 6.488 0 0 0 1.192 2.977A5.087 5.087 0 0 0 13.8 34.25c2.4.23 10.2.301 10.2.301s6.304-.01 10.502-.313a4.29 4.29 0 0 0 3.006-1.27 6.49 6.49 0 0 0 1.192-2.978l.3-4.856v-2.276a45.435 45.435 0 0 0-.3-4.855zm-17.798 9.89v-8.43l8.105 4.23z"
    />
</svg>
