<svg xmlns="http://www.w3.org/2000/svg" viewBox="0 0 48 48" id="nm-icon-quattro-large">
    <title>quattro-large</title>
    <path fill="none" d="M0 0h48v48H0z" />
    <path d="M45.5 15a1.502 1.502 0 0 0 1.5-1.5v-3A1.502 1.502 0 0 0 45.5 9h-12a1.502 1.502 0 0 0-1.5 1.5v3a1.502 1.502 0 0 0 1.5 1.5H39v3h-2v5H24.043L13 21.08V18H8.97v-3h5.53a1.502 1.502 0 0 0 1.5-1.5v-3A1.502 1.502 0 0 0 14.5 9h-12A1.502 1.502 0 0 0 1 10.5v3A1.502 1.502 0 0 0 2.5 15h5.47v3H4v11h3.97v3H2.5A1.502 1.502 0 0 0 1 33.5v3A1.502 1.502 0 0 0 2.5 38h12a1.502 1.502 0 0 0 1.5-1.5v-3a1.502 1.502 0 0 0-1.5-1.5H8.97v-3H13v-3.08L24.043 24H37v5h2v3h-5.5a1.502 1.502 0 0 0-1.5 1.5v3a1.502 1.502 0 0 0 1.5 1.5h12a1.502 1.502 0 0 0 1.5-1.5v-3a1.502 1.502 0 0 0-1.5-1.5H40v-3h2V18h-2v-3zM2 13.5v-3a.5.5 0 0 1 .5-.5h12a.5.5 0 0 1 .5.5v3a.5.5 0 0 1-.5.5h-12a.5.5 0 0 1-.5-.5zm13 20v3a.5.5 0 0 1-.5.5h-12a.5.5 0 0 1-.5-.5v-3a.5.5 0 0 1 .5-.5h12a.5.5 0 0 1 .5.5zm-3-8.42V28H5v-9h7v2.92l9.082 1.58zm34 8.42v3a.501.501 0 0 1-.5.5h-12a.501.501 0 0 1-.5-.5v-3a.501.501 0 0 1 .5-.5h12a.501.501 0 0 1 .5.5zM41 28h-3v-9h3zm-8-14.5v-3a.5.5 0 0 1 .5-.5h12a.5.5 0 0 1 .5.5v3a.5.5 0 0 1-.5.5h-12a.5.5 0 0 1-.5-.5z" />
</svg>
